# xmcd
#
# Track frame offsets:
#	150
#	6284
#	29067
#	56638
#	75381
#	93675
#	110825
#	129187
#	147500
#	157440
#	170517
#	176667
#	193224
#	215968
#
# Disc length: 3165 seconds
#
# Revision: 0
# Processed by: cddbd v1.5.1PL2 Copyright (c) Steve Scherf et al.
# Submitted via: EasyCDDAExtractor 9.1.0.1
#
DISCID=da0c5b0e
DTITLE=Pomoc Duchowa - Dokad...
DYEAR=2004
DGENRE=Gospel
TTITLE0=Intro
TTITLE1=Chwalcie Boga
TTITLE2=Modlitwa
TTITLE3=Dokad...
TTITLE4=Jeszua puka
TTITLE5=Uraduj sie
TTITLE6=MNilosc twoja
TTITLE7=Boze Abrahama
TTITLE8=Heju Tuwim - Ef.4.32
TTITLE9=Serce Estery
TTITLE10=Nadzieja
TTITLE11=Kim jestem
TTITLE12=To nie byl sen
TTITLE13=Tylko jeden
EXTD=
EXTT0=
EXTT1=
EXTT2=
EXTT3=
EXTT4=
EXTT5=
EXTT6=
EXTT7=
EXTT8=
EXTT9=
EXTT10=
EXTT11=
EXTT12=
EXTT13=
PLAYORDER=
